<?xml version="1.0" encoding="UTF-8" standalone="no"?>
<svg
   version="1.1"
   id="svg2"
   width="684.17334"
   height="99.892136"
   viewBox="0 0 684.17334 99.892136"
   xmlnsInkscape="http://www.inkscape.org/namespaces/inkscape"
   xmlnsSodipodi="http://sodipodi.sourceforge.net/DTD/sodipodi-0.dtd"
   xmlns="http://www.w3.org/2000/svg"
   >
  <defs
     id="defs6">
    <clipPath
       clipPathUnits="userSpaceOnUse"
       id="clipPath16">
      <path
         d="M 0,74.919 H 513.13 V 0 H 0 Z"
         id="path14" />
    </clipPath>
  </defs>
  <sodipodinamedview
     id="namedview4"
     pagecolor="#ffffff"
     bordercolor="#000000"
     borderopacity="0.25"
     inkscapeShowpageshadow="2"
     inkscapePageopacity="0.0"
     inkscapePagecheckerboard="0"
     inkscapeDeskcolor="#d1d1d1" />
  <g
     id="g8"
     inkscapeGroupmode="layer"
     inkscapeLabel="MOMENTANNA_vector"
     transform="matrix(1.3333333,0,0,-1.3333333,0,99.892133)">
    <g
       id="g10">
      <g
         id="g12"
         clip-path="url(#clipPath16)">
        <g
           id="g18"
           transform="translate(62.7472,14.0626)">
          <path
             d="m 0,0 h -9.116 c -0.09,0.268 -0.085,0.255 -0.175,0.523 0.893,0.696 1.911,2.295 1.911,6.024 V 39.493 L -24.853,-0.235 c -0.255,0 -0.281,0 -0.536,0 L -42.861,39.493 V 6.969 c 0,-3.974 1.303,-5.701 2.38,-6.443 C -40.569,0.252 -40.562,0.273 -40.65,0 h -8.36 c -0.084,0.282 -0.075,0.252 -0.158,0.535 1.103,0.725 2.435,2.417 2.435,6.434 v 33.65 c 0,3.506 -1.236,5.039 -2.28,5.723 0.079,0.287 0.07,0.256 0.149,0.544 h 8.749 L -23.994,10.419 -8.155,46.886 H 0.044 C 0.131,46.612 0.125,46.631 0.213,46.357 -0.719,45.666 -1.818,44.096 -1.818,40.479 V 6.547 c 0,-3.678 1.069,-5.314 1.998,-6.03 C 0.088,0.253 0.092,0.264 0,0"
             style="fill:#000000;fill-opacity:1;fill-rule:nonzero;stroke:none"
             id="path20" />
        </g>
        <g
           id="g22"
           transform="translate(91.6735,58.2726)">
          <path
             d="m 0,0 c -9.573,0 -16.191,-7.673 -16.191,-19.148 0,-12.953 7.04,-22.246 17.741,-22.246 9.573,0 16.192,7.955 16.192,19.57 C 17.742,-9.292 10.913,0 0,0 m 0.142,-45.266 c -13.306,0 -22.106,10.278 -22.106,24.076 0,14.221 9.575,25.062 23.372,25.062 13.236,0 21.965,-10.278 21.965,-24.076 0,-14.009 -9.223,-25.062 -23.231,-25.062"
             style="fill:#000000;fill-opacity:1;fill-rule:nonzero;stroke:none"
             id="path24" />
        </g>
        <g
           id="g26"
           transform="translate(170.3595,14.0626)">
          <path
             d="m 0,0 h -9.116 c -0.089,0.268 -0.085,0.255 -0.175,0.523 0.893,0.696 1.912,2.295 1.912,6.024 V 39.493 L -24.853,-0.235 c -0.255,0 -0.281,0 -0.536,0 L -42.861,39.493 V 6.969 c 0,-3.974 1.303,-5.701 2.38,-6.443 C -40.569,0.252 -40.562,0.273 -40.65,0 h -8.36 c -0.084,0.282 -0.075,0.252 -0.158,0.535 1.103,0.725 2.435,2.417 2.435,6.434 v 33.65 c 0,3.506 -1.235,5.039 -2.28,5.723 0.079,0.287 0.07,0.256 0.149,0.544 h 8.749 L -23.993,10.419 -8.155,46.886 H 0.044 C 0.131,46.612 0.126,46.631 0.213,46.357 -0.719,45.666 -1.818,44.096 -1.818,40.479 V 6.547 c 0,-3.678 1.069,-5.314 1.998,-6.03 C 0.088,0.253 0.092,0.264 0,0"
             style="fill:#000000;fill-opacity:1;fill-rule:nonzero;stroke:none"
             id="path28" />
        </g>
        <g
           id="g30"
           transform="translate(206.2557,14.0626)">
          <path
             d="m 0,0 h -27.872 c -0.093,0.258 -0.093,0.259 -0.187,0.517 0.958,0.702 2.083,2.34 2.083,6.171 v 33.58 c 0,3.753 -1.22,5.386 -2.261,6.093 0.09,0.264 0.089,0.26 0.179,0.525 h 26.65 v -6.007 c -0.283,-0.083 -0.252,-0.074 -0.535,-0.156 -0.742,1.227 -2.514,2.713 -6.856,2.713 H -20.274 V 25.695 h 9.575 c 2.855,0 4.155,0.961 4.76,1.791 0.262,-0.092 0.257,-0.091 0.519,-0.183 V 20.67 c -0.266,-0.09 -0.254,-0.086 -0.52,-0.177 -0.606,0.814 -1.905,1.753 -4.689,1.753 h -9.645 V 3.52 h 11.827 c 4.971,0 7.159,0.802 8.945,3.573 0.3,-0.107 0.237,-0.085 0.538,-0.191 z"
             style="fill:#000000;fill-opacity:1;fill-rule:nonzero;stroke:none"
             id="path32" />
        </g>
        <g
           id="g34"
           transform="translate(246.0883,60.9482)">
          <path
             d="M 0,0 H 8.282 C 8.372,-0.264 8.37,-0.26 8.461,-0.524 7.437,-1.226 6.191,-2.843 6.191,-6.547 v -41.552 c -0.26,-0.092 -0.26,-0.093 -0.521,-0.185 l -31.439,38.85 v -30.975 c 0,-3.62 1.28,-5.234 2.363,-5.943 -0.09,-0.271 -0.087,-0.263 -0.177,-0.534 h -8.305 c -0.081,0.283 -0.073,0.258 -0.154,0.54 1.007,0.696 2.189,2.285 2.189,5.937 v 33.158 c 0,3.811 -2.389,5.737 -4.198,6.708 0.078,0.292 0.067,0.251 0.146,0.543 h 7.854 l 28.23,-34.988 v 28.441 c 0,3.704 -1.28,5.307 -2.336,6.011 C -0.074,-0.254 -0.083,-0.283 0,0"
             style="fill:#000000;fill-opacity:1;fill-rule:nonzero;stroke:none"
             id="path36" />
        </g>
        <g
           id="g38"
           transform="translate(289.1026,57.4278)">
          <path
             d="m 0,0 h -8.095 v -36.818 c 0,-3.668 1.077,-5.297 2.015,-6.011 -0.085,-0.277 -0.08,-0.26 -0.164,-0.536 h -9.371 c -0.093,0.259 -0.092,0.256 -0.186,0.516 0.93,0.687 2.003,2.286 2.003,6.031 V 0 h -8.166 c -4.231,0 -6.327,-0.604 -7.493,-2.642 -0.302,0.086 -0.241,0.069 -0.543,0.155 l 0.433,6.007 H 7.603 L 8.034,-2.513 C 7.726,-2.597 7.792,-2.579 7.484,-2.662 6.418,-0.719 4.559,0 0,0"
             style="fill:#000000;fill-opacity:1;fill-rule:nonzero;stroke:none"
             id="path40" />
        </g>
        <g
           id="g42"
           transform="translate(336.2081,51.3735)">
          <path
             d="M 0,0 -7.673,-19.289 H 7.673 Z M 22.484,-37.311 H 12.342 c -0.093,0.255 -0.092,0.254 -0.186,0.508 0.605,0.472 1.008,1.252 1.008,2.379 0,0.985 -0.281,1.901 -1.196,4.153 l -2.887,7.462 H -9.011 l -2.816,-7.181 c -0.634,-1.689 -1.056,-2.956 -1.056,-3.941 0,-1.56 0.637,-2.4 1.301,-2.855 -0.086,-0.273 -0.079,-0.251 -0.164,-0.525 h -8.681 c -0.09,0.27 -0.084,0.252 -0.173,0.522 1.11,0.782 2.935,2.736 4.972,7.644 L 0.785,10.884 c 0.261,0 0.279,0 0.54,-0.001 L 17.6,-29.215 c 1.895,-4.786 3.822,-6.765 5.052,-7.569 -0.087,-0.273 -0.081,-0.254 -0.168,-0.527"
             style="fill:#000000;fill-opacity:1;fill-rule:nonzero;stroke:none"
             id="path44" />
        </g>
        <g
           id="g46"
           transform="translate(395.8198,60.9482)">
          <path
             d="M 0,0 H 8.291 C 8.381,-0.263 8.38,-0.259 8.469,-0.522 7.445,-1.223 6.196,-2.839 6.196,-6.547 v -41.557 c -0.259,-0.091 -0.259,-0.091 -0.518,-0.183 l -31.442,38.853 v -30.975 c 0,-3.62 1.28,-5.234 2.363,-5.943 -0.09,-0.271 -0.087,-0.263 -0.176,-0.534 h -8.306 c -0.081,0.283 -0.073,0.258 -0.154,0.54 1.007,0.696 2.189,2.285 2.189,5.937 v 33.158 c 0,3.814 -2.393,5.741 -4.203,6.711 0.078,0.291 0.067,0.249 0.145,0.54 h 7.86 L 2.185,-34.988 v 28.441 c 0,3.71 -1.284,5.312 -2.341,6.014 C -0.074,-0.252 -0.082,-0.281 0,0"
             style="fill:#000000;fill-opacity:1;fill-rule:nonzero;stroke:none"
             id="path48" />
        </g>
        <g
           id="g50"
           transform="translate(444.9606,60.9482)">
          <path
             d="M 0,0 H 8.291 C 8.381,-0.263 8.379,-0.259 8.469,-0.522 7.445,-1.223 6.196,-2.839 6.196,-6.547 v -41.557 c -0.259,-0.091 -0.259,-0.091 -0.518,-0.183 l -31.442,38.853 v -30.975 c 0,-3.62 1.28,-5.234 2.363,-5.943 -0.09,-0.271 -0.087,-0.263 -0.177,-0.534 h -8.305 c -0.081,0.283 -0.073,0.258 -0.154,0.54 1.007,0.696 2.189,2.285 2.189,5.937 v 33.158 c 0,3.814 -2.393,5.741 -4.203,6.711 0.078,0.291 0.067,0.249 0.145,0.54 h 7.86 L 2.185,-34.988 v 28.441 c 0,3.71 -1.284,5.312 -2.341,6.014 C -0.074,-0.252 -0.082,-0.281 0,0"
             style="fill:#000000;fill-opacity:1;fill-rule:nonzero;stroke:none"
             id="path52" />
        </g>
        <g
           id="g54"
           transform="translate(476.8992,51.3735)">
          <path
             d="M 0,0 -7.673,-19.289 H 7.673 Z M 22.484,-37.311 H 12.342 c -0.093,0.255 -0.092,0.254 -0.186,0.508 0.605,0.472 1.008,1.252 1.008,2.379 0,0.985 -0.281,1.901 -1.196,4.153 l -2.887,7.462 H -9.011 l -2.816,-7.181 c -0.634,-1.689 -1.056,-2.956 -1.056,-3.941 0,-1.56 0.637,-2.4 1.301,-2.855 -0.086,-0.273 -0.079,-0.251 -0.164,-0.525 h -8.681 c -0.09,0.27 -0.084,0.252 -0.173,0.522 1.11,0.782 2.935,2.736 4.972,7.644 L 0.785,10.884 c 0.261,0 0.279,0 0.54,-0.001 L 17.6,-29.215 c 1.895,-4.786 3.822,-6.765 5.052,-7.569 -0.087,-0.273 -0.081,-0.254 -0.168,-0.527"
             style="fill:#000000;fill-opacity:1;fill-rule:nonzero;stroke:none"
             id="path56" />
        </g>
      </g>
    </g>
  </g>
</svg>
